<?xml version="1.0" encoding="utf-8"?>
<!-- Generator: Adobe Illustrator 26.5.0, SVG Export Plug-In . SVG Version: 6.00 Build 0)  -->
<svg version="1.1" id="Layer_1" xmlns="http://www.w3.org/2000/svg" xmlns:xlink="http://www.w3.org/1999/xlink" x="0px" y="0px"
	 width="177.6px" height="72px" viewBox="0 0 177.6 72" style="enable-background:new 0 0 177.6 72;" xml:space="preserve">
<style type="text/css">
	.st0{fill:#231815;}
</style>
<g>
	<polygon class="st0" points="57.1,55.9 54,59.4 54,64.5 49,64.5 49,41.9 54,41.9 54,52.6 63,41.9 69.2,41.9 60.4,52.2 69.7,64.5 
		63.4,64.5 	"/>
	<rect x="70" y="51.6" class="st0" width="10.6" height="4.2"/>
	<g>
		<path class="st0" d="M90.1,63.5c-1.8-1-3.3-2.4-4.3-4.2c-1-1.8-1.6-3.8-1.6-6.1c0-2.3,0.5-4.3,1.6-6.1c1-1.8,2.5-3.2,4.3-4.2
			c1.8-1,3.9-1.5,6.2-1.5c2,0,3.8,0.4,5.4,1.1c1.6,0.7,2.9,1.8,3.9,3c1,1.3,1.7,2.7,2,4.3h-5.1c-0.3-1.1-1-2-2.1-2.8
			c-1.1-0.7-2.4-1.1-4-1.1c-1.3,0-2.6,0.3-3.7,0.9c-1.1,0.6-1.9,1.5-2.6,2.6c-0.6,1.1-0.9,2.3-0.9,3.7c0,1.4,0.3,2.6,0.9,3.7
			c0.6,1.1,1.5,2,2.6,2.6c1.1,0.6,2.3,0.9,3.7,0.9c1,0,2-0.2,2.9-0.6c0.9-0.4,1.7-0.9,2.3-1.6s1-1.3,1.1-2h5.1
			c-0.2,1.5-0.9,3-1.9,4.3c-1,1.3-2.4,2.4-4.1,3.3c-1.7,0.8-3.5,1.2-5.5,1.2C94,65.1,92,64.5,90.1,63.5"/>
		<path class="st0" d="M111.8,41.9h5v12.6c0,1.8,0.5,3.3,1.4,4.4c1,1.1,2.2,1.6,3.9,1.6c1.6,0,2.9-0.5,3.9-1.6
			c1-1.1,1.4-2.6,1.4-4.4V41.9h5v12.6c0,2.1-0.4,4-1.3,5.6c-0.9,1.6-2.1,2.8-3.6,3.7c-1.6,0.9-3.4,1.3-5.4,1.3c-2,0-3.9-0.4-5.4-1.3
			c-1.6-0.9-2.8-2.1-3.6-3.7c-0.9-1.6-1.3-3.4-1.3-5.6V41.9z"/>
		<path class="st0" d="M142.6,52.9h3.8c1.3,0,2.4-0.3,3.1-0.8c0.7-0.6,1.1-1.4,1.1-2.4c0-1.1-0.4-1.9-1.1-2.4
			c-0.7-0.6-1.8-0.8-3.1-0.8h-3.8V52.9z M151,64.5l-4.4-7.1h-4v7.1h-5V41.9h9.1c1.9,0,3.5,0.3,4.9,1c1.4,0.6,2.4,1.5,3.1,2.7
			c0.7,1.2,1.1,2.5,1.1,4.1s-0.4,2.9-1.1,4.1c-0.7,1.2-1.7,2-3.1,2.7l5.2,8.1H151z"/>
	</g>
	<polygon class="st0" points="160.6,41.9 160.6,64.5 177.6,64.5 177.6,60.1 165.6,60.1 165.6,55.3 176.4,55.3 176.4,50.9 
		165.6,50.9 165.6,46.3 177.3,46.3 177.3,41.9 	"/>
	<polygon class="st0" points="51.7,68.5 50,70.2 50,68.5 49.5,68.5 49.5,71.9 50,71.9 50,70.8 50.6,70.2 51.8,71.9 52.4,71.9 
		50.9,69.9 52.3,68.5 	"/>
	<g>
		<path class="st0" d="M52.9,70.7c0,0.3,0.1,0.6,0.2,0.7c0.1,0.2,0.3,0.2,0.5,0.2c0.2,0,0.4-0.1,0.5-0.2c0.1-0.2,0.2-0.4,0.2-0.7
			c0-0.3-0.1-0.5-0.2-0.7c-0.1-0.2-0.3-0.2-0.5-0.2c-0.2,0-0.4,0.1-0.5,0.2S52.9,70.4,52.9,70.7 M52.5,70.7c0-0.5,0.1-0.8,0.4-1
			c0.2-0.2,0.5-0.3,0.8-0.3c0.3,0,0.6,0.1,0.8,0.3c0.2,0.2,0.3,0.5,0.3,0.9c0,0.3,0,0.6-0.1,0.8c-0.1,0.2-0.2,0.3-0.4,0.4
			S53.8,72,53.6,72c-0.3,0-0.6-0.1-0.8-0.3C52.6,71.4,52.5,71.1,52.5,70.7"/>
		<path class="st0" d="M55.2,71.9v-2.5h0.4v0.4c0.1-0.2,0.2-0.3,0.3-0.3c0.1-0.1,0.2-0.1,0.3-0.1c0.1,0,0.3,0,0.4,0.1l-0.1,0.4
			c-0.1-0.1-0.2-0.1-0.3-0.1c-0.1,0-0.2,0-0.2,0.1c-0.1,0.1-0.1,0.1-0.2,0.2c0,0.2-0.1,0.3-0.1,0.5v1.3H55.2z"/>
		<path class="st0" d="M57,70.5h1.4c0-0.2-0.1-0.4-0.2-0.5c-0.1-0.2-0.3-0.2-0.5-0.2c-0.2,0-0.4,0.1-0.5,0.2
			C57.1,70.1,57,70.2,57,70.5 M58.4,71.1l0.4,0.1c-0.1,0.3-0.2,0.5-0.4,0.6C58.3,71.9,58,72,57.7,72c-0.4,0-0.7-0.1-0.9-0.3
			c-0.2-0.2-0.3-0.5-0.3-0.9c0-0.4,0.1-0.7,0.3-1c0.2-0.2,0.5-0.3,0.8-0.3c0.3,0,0.6,0.1,0.8,0.3c0.2,0.2,0.3,0.5,0.3,1
			c0,0,0,0.1,0,0.1H57c0,0.3,0.1,0.5,0.2,0.6c0.1,0.1,0.3,0.2,0.5,0.2c0.2,0,0.3,0,0.4-0.1C58.2,71.4,58.3,71.3,58.4,71.1"/>
		<path class="st0" d="M60.8,70.7c-0.2,0.1-0.4,0.1-0.7,0.2c-0.2,0-0.3,0.1-0.4,0.1c-0.1,0-0.1,0.1-0.2,0.1c0,0.1-0.1,0.1-0.1,0.2
			c0,0.1,0,0.2,0.1,0.3c0.1,0.1,0.2,0.1,0.4,0.1c0.2,0,0.3,0,0.4-0.1c0.1-0.1,0.2-0.2,0.3-0.3c0-0.1,0.1-0.2,0.1-0.4V70.7z
			 M60.9,71.6c-0.2,0.1-0.3,0.2-0.5,0.3C60.3,72,60.1,72,60,72c-0.3,0-0.5-0.1-0.6-0.2c-0.1-0.1-0.2-0.3-0.2-0.5
			c0-0.1,0-0.2,0.1-0.3c0.1-0.1,0.1-0.2,0.2-0.2c0.1-0.1,0.2-0.1,0.3-0.1c0.1,0,0.2,0,0.4-0.1c0.3,0,0.6-0.1,0.8-0.1
			c0-0.1,0-0.1,0-0.1c0-0.2,0-0.3-0.1-0.4c-0.1-0.1-0.3-0.1-0.5-0.1c-0.2,0-0.3,0-0.4,0.1c-0.1,0.1-0.2,0.2-0.2,0.4l-0.4-0.1
			c0-0.2,0.1-0.3,0.2-0.4c0.1-0.1,0.2-0.2,0.4-0.2c0.2-0.1,0.4-0.1,0.6-0.1c0.2,0,0.4,0,0.5,0.1c0.1,0,0.2,0.1,0.3,0.2
			c0.1,0.1,0.1,0.2,0.1,0.3c0,0.1,0,0.2,0,0.4v0.6c0,0.4,0,0.6,0,0.7c0,0.1,0.1,0.2,0.1,0.3H61C60.9,71.9,60.9,71.8,60.9,71.6"/>
	</g>
	<rect x="61.7" y="70.5" class="st0" width="1.3" height="0.4"/>
	<g>
		<path class="st0" d="M65.8,70.7l0.5,0.1c-0.1,0.4-0.3,0.7-0.5,0.9c-0.2,0.2-0.5,0.3-0.9,0.3c-0.4,0-0.7-0.1-0.9-0.2
			c-0.2-0.2-0.4-0.4-0.5-0.7c-0.1-0.3-0.2-0.6-0.2-0.9c0-0.4,0.1-0.7,0.2-0.9c0.1-0.3,0.3-0.5,0.6-0.6c0.3-0.1,0.5-0.2,0.8-0.2
			c0.3,0,0.6,0.1,0.9,0.3c0.2,0.2,0.4,0.4,0.5,0.7l-0.4,0.1c-0.1-0.2-0.2-0.4-0.3-0.5s-0.3-0.2-0.6-0.2c-0.3,0-0.5,0.1-0.7,0.2
			c-0.2,0.1-0.3,0.3-0.4,0.5c-0.1,0.2-0.1,0.4-0.1,0.7c0,0.3,0,0.5,0.1,0.8c0.1,0.2,0.2,0.4,0.4,0.5c0.2,0.1,0.4,0.2,0.6,0.2
			c0.3,0,0.5-0.1,0.6-0.2C65.7,71.2,65.8,71,65.8,70.7"/>
	</g>
	<rect x="66.7" y="68.5" class="st0" width="0.4" height="3.4"/>
	<path class="st0" d="M67.7,71.9h0.4v-2.5h-0.4V71.9z M67.7,69h0.4v-0.5h-0.4V69z"/>
	<g>
		<path class="st0" d="M68.6,71.9v-2.5H69v0.4c0.2-0.3,0.4-0.4,0.8-0.4c0.2,0,0.3,0,0.4,0.1c0.1,0.1,0.2,0.1,0.3,0.2
			c0.1,0.1,0.1,0.2,0.1,0.3c0,0.1,0,0.2,0,0.4v1.5h-0.4v-1.5c0-0.2,0-0.3-0.1-0.4c0-0.1-0.1-0.2-0.2-0.2c-0.1-0.1-0.2-0.1-0.3-0.1
			c-0.2,0-0.3,0.1-0.5,0.2c-0.1,0.1-0.2,0.3-0.2,0.6v1.4H68.6z"/>
	</g>
	<path class="st0" d="M71.2,71.9h0.4v-2.5h-0.4V71.9z M71.2,69h0.4v-0.5h-0.4V69z"/>
	<g>
		<path class="st0" d="M73.8,71l0.4,0.1c0,0.3-0.2,0.5-0.3,0.7c-0.2,0.2-0.4,0.2-0.7,0.2c-0.3,0-0.6-0.1-0.8-0.3
			c-0.2-0.2-0.3-0.5-0.3-1c0-0.3,0-0.5,0.1-0.7c0.1-0.2,0.2-0.4,0.4-0.5c0.2-0.1,0.4-0.2,0.6-0.2c0.3,0,0.5,0.1,0.7,0.2
			c0.2,0.1,0.3,0.3,0.3,0.6l-0.4,0.1c0-0.2-0.1-0.3-0.2-0.4s-0.2-0.1-0.4-0.1c-0.2,0-0.4,0.1-0.5,0.2c-0.1,0.2-0.2,0.4-0.2,0.7
			c0,0.3,0.1,0.6,0.2,0.7c0.1,0.2,0.3,0.2,0.5,0.2c0.2,0,0.3-0.1,0.4-0.2C73.7,71.4,73.8,71.2,73.8,71"/>
		<path class="st0" d="M76.1,70.7c-0.2,0.1-0.4,0.1-0.7,0.2c-0.2,0-0.3,0.1-0.4,0.1s-0.1,0.1-0.2,0.1c0,0.1-0.1,0.1-0.1,0.2
			c0,0.1,0,0.2,0.1,0.3c0.1,0.1,0.2,0.1,0.4,0.1c0.2,0,0.3,0,0.4-0.1c0.1-0.1,0.2-0.2,0.3-0.3c0-0.1,0.1-0.2,0.1-0.4V70.7z
			 M76.1,71.6c-0.2,0.1-0.3,0.2-0.5,0.3C75.5,72,75.4,72,75.2,72c-0.3,0-0.5-0.1-0.6-0.2c-0.1-0.1-0.2-0.3-0.2-0.5
			c0-0.1,0-0.2,0.1-0.3c0.1-0.1,0.1-0.2,0.2-0.2c0.1-0.1,0.2-0.1,0.3-0.1c0.1,0,0.2,0,0.4-0.1c0.3,0,0.6-0.1,0.8-0.1
			c0-0.1,0-0.1,0-0.1c0-0.2,0-0.3-0.1-0.4c-0.1-0.1-0.3-0.1-0.5-0.1c-0.2,0-0.3,0-0.4,0.1c-0.1,0.1-0.2,0.2-0.2,0.4l-0.4-0.1
			c0-0.2,0.1-0.3,0.2-0.4c0.1-0.1,0.2-0.2,0.4-0.2c0.2-0.1,0.4-0.1,0.6-0.1c0.2,0,0.4,0,0.5,0.1c0.1,0,0.2,0.1,0.3,0.2
			c0.1,0.1,0.1,0.2,0.1,0.3c0,0.1,0,0.2,0,0.4v0.6c0,0.4,0,0.6,0,0.7c0,0.1,0.1,0.2,0.1,0.3h-0.4C76.1,71.9,76.1,71.8,76.1,71.6"/>
	</g>
	<rect x="77" y="68.5" class="st0" width="0.4" height="3.4"/>
	<g>
		<path class="st0" d="M79.5,70.7c0,0.3,0.1,0.6,0.2,0.7c0.1,0.2,0.3,0.2,0.5,0.2c0.2,0,0.3-0.1,0.5-0.2c0.1-0.2,0.2-0.4,0.2-0.7
			c0-0.3-0.1-0.6-0.2-0.7c-0.1-0.2-0.3-0.2-0.5-0.2c-0.2,0-0.3,0.1-0.5,0.2C79.6,70.1,79.5,70.4,79.5,70.7 M80.9,71.9v-0.3
			c-0.2,0.2-0.4,0.4-0.7,0.4c-0.2,0-0.4-0.1-0.5-0.2c-0.2-0.1-0.3-0.3-0.4-0.5c-0.1-0.2-0.1-0.4-0.1-0.7c0-0.2,0-0.5,0.1-0.7
			c0.1-0.2,0.2-0.4,0.4-0.5c0.2-0.1,0.3-0.2,0.6-0.2c0.2,0,0.3,0,0.4,0.1c0.1,0.1,0.2,0.1,0.3,0.2v-1.2h0.4v3.4H80.9z"/>
		<path class="st0" d="M83.4,70.7c-0.2,0.1-0.4,0.1-0.7,0.2c-0.2,0-0.3,0.1-0.4,0.1c-0.1,0-0.1,0.1-0.2,0.1c0,0.1-0.1,0.1-0.1,0.2
			c0,0.1,0,0.2,0.1,0.3c0.1,0.1,0.2,0.1,0.4,0.1c0.2,0,0.3,0,0.4-0.1c0.1-0.1,0.2-0.2,0.3-0.3c0-0.1,0.1-0.2,0.1-0.4V70.7z
			 M83.5,71.6c-0.2,0.1-0.3,0.2-0.5,0.3C82.9,72,82.7,72,82.5,72c-0.3,0-0.5-0.1-0.6-0.2c-0.1-0.1-0.2-0.3-0.2-0.5
			c0-0.1,0-0.2,0.1-0.3c0.1-0.1,0.1-0.2,0.2-0.2c0.1-0.1,0.2-0.1,0.3-0.1c0.1,0,0.2,0,0.4-0.1c0.3,0,0.6-0.1,0.8-0.1
			c0-0.1,0-0.1,0-0.1c0-0.2,0-0.3-0.1-0.4c-0.1-0.1-0.3-0.1-0.5-0.1c-0.2,0-0.3,0-0.4,0.1c-0.1,0.1-0.2,0.2-0.2,0.4l-0.4-0.1
			c0-0.2,0.1-0.3,0.2-0.4c0.1-0.1,0.2-0.2,0.4-0.2c0.2-0.1,0.3-0.1,0.6-0.1c0.2,0,0.4,0,0.5,0.1c0.1,0,0.2,0.1,0.3,0.2
			c0.1,0.1,0.1,0.2,0.1,0.3c0,0.1,0,0.2,0,0.4v0.6c0,0.4,0,0.6,0,0.7c0,0.1,0.1,0.2,0.1,0.3h-0.4C83.5,71.9,83.5,71.8,83.5,71.6"/>
		<path class="st0" d="M85.3,71.6l0.1,0.4c-0.1,0-0.2,0-0.3,0c-0.2,0-0.3,0-0.4-0.1c-0.1,0-0.1-0.1-0.2-0.2c0-0.1-0.1-0.2-0.1-0.5
			v-1.4h-0.3v-0.3h0.3v-0.6l0.4-0.3v0.9h0.4v0.3h-0.4v1.5c0,0.1,0,0.2,0,0.2c0,0,0,0.1,0.1,0.1c0,0,0.1,0,0.1,0
			C85.2,71.6,85.2,71.6,85.3,71.6"/>
		<path class="st0" d="M87.2,70.7c-0.2,0.1-0.4,0.1-0.7,0.2c-0.2,0-0.3,0.1-0.4,0.1S86,71,86,71.1c0,0.1-0.1,0.1-0.1,0.2
			c0,0.1,0,0.2,0.1,0.3c0.1,0.1,0.2,0.1,0.4,0.1c0.2,0,0.3,0,0.4-0.1c0.1-0.1,0.2-0.2,0.3-0.3c0-0.1,0.1-0.2,0.1-0.4V70.7z
			 M87.3,71.6c-0.2,0.1-0.3,0.2-0.5,0.3C86.7,72,86.5,72,86.3,72c-0.3,0-0.5-0.1-0.6-0.2c-0.1-0.1-0.2-0.3-0.2-0.5
			c0-0.1,0-0.2,0.1-0.3c0.1-0.1,0.1-0.2,0.2-0.2c0.1-0.1,0.2-0.1,0.3-0.1c0.1,0,0.2,0,0.4-0.1c0.3,0,0.6-0.1,0.8-0.1
			c0-0.1,0-0.1,0-0.1c0-0.2,0-0.3-0.1-0.4c-0.1-0.1-0.3-0.1-0.5-0.1c-0.2,0-0.3,0-0.4,0.1C86.1,69.9,86,70,86,70.2l-0.4-0.1
			c0-0.2,0.1-0.3,0.2-0.4c0.1-0.1,0.2-0.2,0.4-0.2c0.2-0.1,0.3-0.1,0.6-0.1c0.2,0,0.4,0,0.5,0.1c0.1,0,0.2,0.1,0.3,0.2
			c0.1,0.1,0.1,0.2,0.1,0.3c0,0.1,0,0.2,0,0.4v0.6c0,0.4,0,0.6,0,0.7c0,0.1,0.1,0.2,0.1,0.3h-0.4C87.3,71.9,87.3,71.8,87.3,71.6"/>
		<path class="st0" d="M91.8,68.5h0.5v2c0,0.3,0,0.6-0.1,0.8c-0.1,0.2-0.2,0.4-0.4,0.5c-0.2,0.1-0.5,0.2-0.8,0.2
			c-0.3,0-0.6-0.1-0.8-0.2c-0.2-0.1-0.4-0.3-0.4-0.5c-0.1-0.2-0.1-0.5-0.1-0.9v-2H90v2c0,0.3,0,0.5,0.1,0.7c0.1,0.1,0.2,0.2,0.3,0.3
			c0.1,0.1,0.3,0.1,0.5,0.1c0.3,0,0.6-0.1,0.7-0.2c0.1-0.2,0.2-0.4,0.2-0.9V68.5z"/>
		<path class="st0" d="M93.7,71.6l0.1,0.4c-0.1,0-0.2,0-0.3,0c-0.2,0-0.3,0-0.4-0.1c-0.1,0-0.1-0.1-0.2-0.2c0-0.1-0.1-0.2-0.1-0.5
			v-1.4h-0.3v-0.3h0.3v-0.6l0.4-0.3v0.9h0.4v0.3h-0.4v1.5c0,0.1,0,0.2,0,0.2c0,0,0,0.1,0.1,0.1c0,0,0.1,0,0.1,0
			C93.6,71.6,93.7,71.6,93.7,71.6"/>
	</g>
	<path class="st0" d="M94.1,71.9h0.4v-2.5h-0.4V71.9z M94.1,69h0.4v-0.5h-0.4V69z"/>
	<rect x="95" y="68.5" class="st0" width="0.4" height="3.4"/>
	<path class="st0" d="M96,71.9h0.4v-2.5H96V71.9z M96,69h0.4v-0.5H96V69z"/>
	<g>
		<path class="st0" d="M96.7,71.9v-0.3l1.6-1.8c-0.2,0-0.3,0-0.5,0h-1v-0.3h2v0.3l-1.3,1.6l-0.3,0.3c0.2,0,0.4,0,0.5,0h1.2v0.4H96.7
			z"/>
		<path class="st0" d="M100.9,70.7c-0.2,0.1-0.4,0.1-0.7,0.2c-0.2,0-0.3,0.1-0.4,0.1c-0.1,0-0.1,0.1-0.2,0.1c0,0.1-0.1,0.1-0.1,0.2
			c0,0.1,0,0.2,0.1,0.3c0.1,0.1,0.2,0.1,0.4,0.1c0.2,0,0.3,0,0.4-0.1c0.1-0.1,0.2-0.2,0.3-0.3c0-0.1,0.1-0.2,0.1-0.4V70.7z
			 M100.9,71.6c-0.2,0.1-0.3,0.2-0.5,0.3c-0.1,0.1-0.3,0.1-0.5,0.1c-0.3,0-0.5-0.1-0.6-0.2c-0.1-0.1-0.2-0.3-0.2-0.5
			c0-0.1,0-0.2,0.1-0.3c0.1-0.1,0.1-0.2,0.2-0.2c0.1-0.1,0.2-0.1,0.3-0.1c0.1,0,0.2,0,0.4-0.1c0.3,0,0.6-0.1,0.8-0.1
			c0-0.1,0-0.1,0-0.1c0-0.2,0-0.3-0.1-0.4c-0.1-0.1-0.3-0.1-0.5-0.1c-0.2,0-0.3,0-0.4,0.1c-0.1,0.1-0.2,0.2-0.2,0.4l-0.4-0.1
			c0-0.2,0.1-0.3,0.2-0.4c0.1-0.1,0.2-0.2,0.4-0.2c0.2-0.1,0.3-0.1,0.6-0.1c0.2,0,0.4,0,0.5,0.1c0.1,0,0.2,0.1,0.3,0.2
			c0.1,0.1,0.1,0.2,0.1,0.3c0,0.1,0,0.2,0,0.4v0.6c0,0.4,0,0.6,0,0.7c0,0.1,0.1,0.2,0.1,0.3H101C100.9,71.9,100.9,71.8,100.9,71.6"
			/>
		<path class="st0" d="M102.8,71.6l0.1,0.4c-0.1,0-0.2,0-0.3,0c-0.2,0-0.3,0-0.4-0.1c-0.1,0-0.1-0.1-0.2-0.2c0-0.1-0.1-0.2-0.1-0.5
			v-1.4h-0.3v-0.3h0.3v-0.6l0.4-0.3v0.9h0.4v0.3h-0.4v1.5c0,0.1,0,0.2,0,0.2c0,0,0,0.1,0.1,0.1c0,0,0.1,0,0.1,0
			C102.6,71.6,102.7,71.6,102.8,71.6"/>
	</g>
	<path class="st0" d="M103.1,71.9h0.4v-2.5h-0.4V71.9z M103.1,69h0.4v-0.5h-0.4V69z"/>
	<g>
		<path class="st0" d="M104.3,70.7c0,0.3,0.1,0.6,0.2,0.7c0.1,0.2,0.3,0.2,0.5,0.2c0.2,0,0.4-0.1,0.5-0.2c0.1-0.2,0.2-0.4,0.2-0.7
			c0-0.3-0.1-0.5-0.2-0.7c-0.1-0.2-0.3-0.2-0.5-0.2c-0.2,0-0.4,0.1-0.5,0.2C104.4,70.1,104.3,70.4,104.3,70.7 M103.9,70.7
			c0-0.5,0.1-0.8,0.4-1c0.2-0.2,0.5-0.3,0.8-0.3c0.3,0,0.6,0.1,0.8,0.3c0.2,0.2,0.3,0.5,0.3,0.9c0,0.3,0,0.6-0.1,0.8
			c-0.1,0.2-0.2,0.3-0.4,0.4c-0.2,0.1-0.4,0.2-0.6,0.2c-0.3,0-0.6-0.1-0.8-0.3C104,71.4,103.9,71.1,103.9,70.7"/>
		<path class="st0" d="M106.6,71.9v-2.5h0.4v0.4c0.2-0.3,0.4-0.4,0.8-0.4c0.1,0,0.3,0,0.4,0.1c0.1,0.1,0.2,0.1,0.3,0.2
			c0.1,0.1,0.1,0.2,0.1,0.3c0,0.1,0,0.2,0,0.4v1.5h-0.4v-1.5c0-0.2,0-0.3,0-0.4c0-0.1-0.1-0.2-0.2-0.2c-0.1-0.1-0.2-0.1-0.3-0.1
			c-0.2,0-0.3,0.1-0.5,0.2c-0.1,0.1-0.2,0.3-0.2,0.6v1.4H106.6z"/>
		<path class="st0" d="M110.4,71.9v-2.5h0.4v0.4c0.2-0.3,0.4-0.4,0.8-0.4c0.2,0,0.3,0,0.4,0.1s0.2,0.1,0.3,0.2
			c0.1,0.1,0.1,0.2,0.1,0.3c0,0.1,0,0.2,0,0.4v1.5H112v-1.5c0-0.2,0-0.3,0-0.4c0-0.1-0.1-0.2-0.2-0.2c-0.1-0.1-0.2-0.1-0.3-0.1
			c-0.2,0-0.3,0.1-0.5,0.2c-0.1,0.1-0.2,0.3-0.2,0.6v1.4H110.4z"/>
		<path class="st0" d="M113.3,70.5h1.4c0-0.2-0.1-0.4-0.2-0.5c-0.1-0.2-0.3-0.2-0.5-0.2c-0.2,0-0.4,0.1-0.5,0.2
			C113.4,70.1,113.3,70.2,113.3,70.5 M114.7,71.1l0.4,0.1c-0.1,0.3-0.2,0.5-0.4,0.6c-0.2,0.1-0.4,0.2-0.7,0.2
			c-0.4,0-0.7-0.1-0.9-0.3c-0.2-0.2-0.3-0.5-0.3-0.9c0-0.4,0.1-0.7,0.3-1c0.2-0.2,0.5-0.3,0.8-0.3c0.3,0,0.6,0.1,0.8,0.3
			s0.3,0.5,0.3,1c0,0,0,0.1,0,0.1h-1.9c0,0.3,0.1,0.5,0.2,0.6c0.1,0.1,0.3,0.2,0.5,0.2c0.2,0,0.3,0,0.4-0.1
			C114.5,71.4,114.6,71.3,114.7,71.1"/>
		<path class="st0" d="M116.5,71.6l0.1,0.4c-0.1,0-0.2,0-0.3,0c-0.2,0-0.3,0-0.4-0.1c-0.1,0-0.1-0.1-0.2-0.2c0-0.1-0.1-0.2-0.1-0.5
			v-1.4h-0.3v-0.3h0.3v-0.6l0.4-0.3v0.9h0.4v0.3h-0.4v1.5c0,0.1,0,0.2,0,0.2c0,0,0,0.1,0.1,0.1c0,0,0.1,0,0.1,0
			C116.3,71.6,116.4,71.6,116.5,71.6"/>
		<path class="st0" d="M117.3,71.9l-0.8-2.5h0.4l0.4,1.4l0.1,0.5c0,0,0-0.2,0.1-0.5l0.4-1.5h0.4l0.4,1.4l0.1,0.5l0.1-0.5l0.4-1.4
			h0.4l-0.8,2.5h-0.4l-0.4-1.5l-0.1-0.4l-0.5,1.9H117.3z"/>
		<path class="st0" d="M120.4,70.7c0,0.3,0.1,0.6,0.2,0.7c0.1,0.2,0.3,0.2,0.5,0.2c0.2,0,0.4-0.1,0.5-0.2c0.1-0.2,0.2-0.4,0.2-0.7
			c0-0.3-0.1-0.5-0.2-0.7c-0.1-0.2-0.3-0.2-0.5-0.2c-0.2,0-0.4,0.1-0.5,0.2C120.5,70.1,120.4,70.4,120.4,70.7 M120,70.7
			c0-0.5,0.1-0.8,0.4-1c0.2-0.2,0.5-0.3,0.8-0.3c0.3,0,0.6,0.1,0.8,0.3c0.2,0.2,0.3,0.5,0.3,0.9c0,0.3,0,0.6-0.1,0.8
			c-0.1,0.2-0.2,0.3-0.4,0.4c-0.2,0.1-0.4,0.2-0.6,0.2c-0.3,0-0.6-0.1-0.8-0.3C120.1,71.4,120,71.1,120,70.7"/>
		<path class="st0" d="M122.7,71.9v-2.5h0.4v0.4c0.1-0.2,0.2-0.3,0.3-0.3c0.1-0.1,0.2-0.1,0.3-0.1c0.1,0,0.3,0,0.4,0.1l-0.1,0.4
			c-0.1-0.1-0.2-0.1-0.3-0.1c-0.1,0-0.2,0-0.2,0.1c-0.1,0.1-0.1,0.1-0.2,0.2c0,0.2-0.1,0.3-0.1,0.5v1.3H122.7z"/>
	</g>
	<polygon class="st0" points="124.2,68.5 124.2,71.9 124.7,71.9 124.7,71 125,70.7 125.8,71.9 126.3,71.9 125.3,70.4 126.2,69.5 
		125.7,69.5 124.7,70.5 124.7,68.5 	"/>
	<g>
		<path class="st0" d="M127.9,71.9v-2.2h-0.4v-0.3h0.4v-0.3c0-0.2,0-0.3,0-0.4c0-0.1,0.1-0.2,0.2-0.3c0.1-0.1,0.2-0.1,0.4-0.1
			c0.1,0,0.2,0,0.4,0l-0.1,0.4c-0.1,0-0.2,0-0.2,0c-0.1,0-0.2,0-0.3,0.1c-0.1,0.1-0.1,0.2-0.1,0.3v0.2h0.5v0.3h-0.5v2.2H127.9z"/>
		<path class="st0" d="M129.3,70.7c0,0.3,0.1,0.6,0.2,0.7c0.1,0.2,0.3,0.2,0.5,0.2s0.4-0.1,0.5-0.2c0.1-0.2,0.2-0.4,0.2-0.7
			c0-0.3-0.1-0.5-0.2-0.7c-0.1-0.2-0.3-0.2-0.5-0.2c-0.2,0-0.4,0.1-0.5,0.2C129.4,70.1,129.3,70.4,129.3,70.7 M128.9,70.7
			c0-0.5,0.1-0.8,0.4-1c0.2-0.2,0.5-0.3,0.8-0.3c0.3,0,0.6,0.1,0.8,0.3c0.2,0.2,0.3,0.5,0.3,0.9c0,0.3,0,0.6-0.1,0.8
			c-0.1,0.2-0.2,0.3-0.4,0.4c-0.2,0.1-0.4,0.2-0.6,0.2c-0.3,0-0.6-0.1-0.8-0.3C129,71.4,128.9,71.1,128.9,70.7"/>
		<path class="st0" d="M131.6,71.9v-2.5h0.4v0.4c0.1-0.2,0.2-0.3,0.3-0.3c0.1-0.1,0.2-0.1,0.3-0.1c0.1,0,0.3,0,0.4,0.1l-0.1,0.4
			c-0.1-0.1-0.2-0.1-0.3-0.1c-0.1,0-0.2,0-0.2,0.1c-0.1,0.1-0.1,0.1-0.2,0.2c0,0.2-0.1,0.3-0.1,0.5v1.3H131.6z"/>
		<path class="st0" d="M134.8,70h1c0.2,0,0.4,0,0.5-0.1c0.1,0,0.2-0.1,0.3-0.2c0.1-0.1,0.1-0.2,0.1-0.3c0-0.2-0.1-0.3-0.2-0.4
			c-0.1-0.1-0.3-0.2-0.6-0.2h-1.1V70z M134.4,71.9v-3.4h1.5c0.3,0,0.5,0,0.7,0.1c0.2,0.1,0.3,0.2,0.4,0.3c0.1,0.2,0.1,0.3,0.1,0.5
			c0,0.2-0.1,0.4-0.2,0.6c-0.2,0.2-0.4,0.3-0.7,0.3c0.1,0.1,0.2,0.1,0.3,0.2c0.1,0.1,0.3,0.3,0.4,0.5l0.6,0.9h-0.6l-0.5-0.7
			c-0.1-0.2-0.2-0.4-0.3-0.5c-0.1-0.1-0.2-0.2-0.2-0.2c-0.1,0-0.1-0.1-0.2-0.1c-0.1,0-0.1,0-0.3,0h-0.5v1.5H134.4z"/>
		<path class="st0" d="M138,70.5h1.4c0-0.2-0.1-0.4-0.2-0.5c-0.1-0.2-0.3-0.2-0.5-0.2c-0.2,0-0.4,0.1-0.5,0.2
			C138.1,70.1,138,70.2,138,70.5 M139.4,71.1l0.4,0.1c-0.1,0.3-0.2,0.5-0.4,0.6c-0.2,0.1-0.4,0.2-0.7,0.2c-0.4,0-0.7-0.1-0.9-0.3
			c-0.2-0.2-0.3-0.5-0.3-0.9c0-0.4,0.1-0.7,0.3-1c0.2-0.2,0.5-0.3,0.8-0.3c0.3,0,0.6,0.1,0.8,0.3c0.2,0.2,0.3,0.5,0.3,1
			c0,0,0,0.1,0,0.1H138c0,0.3,0.1,0.5,0.2,0.6c0.1,0.1,0.3,0.2,0.5,0.2c0.2,0,0.3,0,0.4-0.1C139.2,71.4,139.3,71.3,139.4,71.1"/>
		<path class="st0" d="M140.1,71.2l0.4-0.1c0,0.2,0.1,0.3,0.2,0.4c0.1,0.1,0.3,0.1,0.4,0.1c0.2,0,0.3,0,0.4-0.1
			c0.1-0.1,0.1-0.2,0.1-0.3c0-0.1,0-0.2-0.1-0.2c-0.1,0-0.2-0.1-0.4-0.1c-0.3-0.1-0.5-0.1-0.6-0.2c-0.1-0.1-0.2-0.1-0.3-0.2
			c-0.1-0.1-0.1-0.2-0.1-0.3c0-0.1,0-0.2,0.1-0.3c0.1-0.1,0.1-0.2,0.2-0.2c0.1,0,0.2-0.1,0.3-0.1c0.1,0,0.2-0.1,0.4-0.1
			c0.2,0,0.4,0,0.5,0.1c0.1,0.1,0.3,0.1,0.3,0.2c0.1,0.1,0.1,0.2,0.1,0.4l-0.4,0.1c0-0.1-0.1-0.2-0.2-0.3c-0.1-0.1-0.2-0.1-0.4-0.1
			c-0.2,0-0.3,0-0.4,0.1c-0.1,0.1-0.1,0.1-0.1,0.2c0,0.1,0,0.1,0.1,0.1c0,0,0.1,0.1,0.2,0.1c0,0,0.2,0.1,0.4,0.1
			c0.3,0.1,0.5,0.1,0.6,0.2c0.1,0.1,0.2,0.1,0.3,0.2s0.1,0.2,0.1,0.4c0,0.1,0,0.3-0.1,0.4c-0.1,0.1-0.2,0.2-0.4,0.3
			c-0.2,0.1-0.3,0.1-0.5,0.1c-0.3,0-0.6-0.1-0.7-0.2C140.3,71.7,140.1,71.5,140.1,71.2"/>
		<path class="st0" d="M142.9,70.5h1.4c0-0.2-0.1-0.4-0.2-0.5c-0.1-0.2-0.3-0.2-0.5-0.2c-0.2,0-0.4,0.1-0.5,0.2
			C143,70.1,142.9,70.2,142.9,70.5 M144.3,71.1l0.4,0.1c-0.1,0.3-0.2,0.5-0.4,0.6c-0.2,0.1-0.4,0.2-0.7,0.2c-0.4,0-0.7-0.1-0.9-0.3
			c-0.2-0.2-0.3-0.5-0.3-0.9c0-0.4,0.1-0.7,0.3-1c0.2-0.2,0.5-0.3,0.8-0.3c0.3,0,0.6,0.1,0.8,0.3s0.3,0.5,0.3,1c0,0,0,0.1,0,0.1
			h-1.9c0,0.3,0.1,0.5,0.2,0.6c0.1,0.1,0.3,0.2,0.5,0.2c0.2,0,0.3,0,0.4-0.1C144.1,71.4,144.2,71.3,144.3,71.1"/>
		<path class="st0" d="M146.7,70.7c-0.2,0.1-0.4,0.1-0.7,0.2c-0.2,0-0.3,0.1-0.4,0.1c-0.1,0-0.1,0.1-0.2,0.1c0,0.1-0.1,0.1-0.1,0.2
			c0,0.1,0,0.2,0.1,0.3c0.1,0.1,0.2,0.1,0.4,0.1c0.2,0,0.3,0,0.4-0.1c0.1-0.1,0.2-0.2,0.3-0.3c0-0.1,0.1-0.2,0.1-0.4V70.7z
			 M146.8,71.6c-0.2,0.1-0.3,0.2-0.5,0.3c-0.1,0.1-0.3,0.1-0.5,0.1c-0.3,0-0.5-0.1-0.6-0.2s-0.2-0.3-0.2-0.5c0-0.1,0-0.2,0.1-0.3
			c0.1-0.1,0.1-0.2,0.2-0.2c0.1-0.1,0.2-0.1,0.3-0.1c0.1,0,0.2,0,0.4-0.1c0.3,0,0.6-0.1,0.8-0.1c0-0.1,0-0.1,0-0.1
			c0-0.2,0-0.3-0.1-0.4c-0.1-0.1-0.3-0.1-0.5-0.1c-0.2,0-0.3,0-0.4,0.1c-0.1,0.1-0.2,0.2-0.2,0.4l-0.4-0.1c0-0.2,0.1-0.3,0.2-0.4
			c0.1-0.1,0.2-0.2,0.4-0.2c0.2-0.1,0.4-0.1,0.6-0.1c0.2,0,0.4,0,0.5,0.1c0.1,0,0.2,0.1,0.3,0.2c0.1,0.1,0.1,0.2,0.1,0.3
			c0,0.1,0,0.2,0,0.4v0.6c0,0.4,0,0.6,0,0.7c0,0.1,0.1,0.2,0.1,0.3h-0.4C146.8,71.9,146.8,71.8,146.8,71.6"/>
		<path class="st0" d="M147.7,71.9v-2.5h0.4v0.4c0.1-0.2,0.2-0.3,0.3-0.3c0.1-0.1,0.2-0.1,0.3-0.1c0.1,0,0.3,0,0.4,0.1l-0.1,0.4
			c-0.1-0.1-0.2-0.1-0.3-0.1c-0.1,0-0.2,0-0.2,0.1c-0.1,0.1-0.1,0.1-0.2,0.2c0,0.2-0.1,0.3-0.1,0.5v1.3H147.7z"/>
		<path class="st0" d="M150.8,71l0.4,0.1c0,0.3-0.2,0.5-0.3,0.7c-0.2,0.2-0.4,0.2-0.7,0.2c-0.3,0-0.6-0.1-0.8-0.3s-0.3-0.5-0.3-1
			c0-0.3,0-0.5,0.1-0.7c0.1-0.2,0.2-0.4,0.4-0.5c0.2-0.1,0.4-0.2,0.6-0.2c0.3,0,0.5,0.1,0.7,0.2c0.2,0.1,0.3,0.3,0.3,0.6l-0.4,0.1
			c0-0.2-0.1-0.3-0.2-0.4c-0.1-0.1-0.2-0.1-0.4-0.1c-0.2,0-0.4,0.1-0.5,0.2c-0.1,0.2-0.2,0.4-0.2,0.7c0,0.3,0.1,0.6,0.2,0.7
			c0.1,0.2,0.3,0.2,0.5,0.2c0.2,0,0.3-0.1,0.4-0.2C150.7,71.4,150.8,71.2,150.8,71"/>
		<path class="st0" d="M151.5,71.9v-3.4h0.4v1.2c0.2-0.2,0.4-0.3,0.7-0.3c0.2,0,0.3,0,0.5,0.1c0.1,0.1,0.2,0.2,0.3,0.3
			c0.1,0.1,0.1,0.3,0.1,0.6v1.6h-0.4v-1.6c0-0.2,0-0.4-0.1-0.5c-0.1-0.1-0.2-0.1-0.4-0.1c-0.1,0-0.2,0-0.4,0.1
			c-0.1,0.1-0.2,0.2-0.2,0.3c0,0.1-0.1,0.3-0.1,0.5v1.4H151.5z"/>
	</g>
	<polygon class="st0" points="155.4,68.5 155.4,71.9 158,71.9 158,71.5 155.8,71.5 155.8,70.4 157.7,70.4 157.7,70 155.8,70 
		155.8,68.9 157.9,68.9 157.9,68.5 	"/>
	<g>
		<path class="st0" d="M158.1,71.9l0.9-1.3l-0.8-1.2h0.5l0.4,0.6c0.1,0.1,0.1,0.2,0.2,0.3c0.1-0.1,0.1-0.2,0.2-0.3l0.4-0.6h0.5
			l-0.9,1.2l0.9,1.3H160l-0.5-0.8l-0.1-0.2l-0.7,1H158.1z"/>
		<path class="st0" d="M162.4,71l0.4,0.1c0,0.3-0.2,0.5-0.3,0.7c-0.2,0.2-0.4,0.2-0.7,0.2c-0.3,0-0.6-0.1-0.8-0.3s-0.3-0.5-0.3-1
			c0-0.3,0-0.5,0.1-0.7c0.1-0.2,0.2-0.4,0.4-0.5c0.2-0.1,0.4-0.2,0.6-0.2c0.3,0,0.5,0.1,0.7,0.2c0.2,0.1,0.3,0.3,0.3,0.6l-0.4,0.1
			c0-0.2-0.1-0.3-0.2-0.4c-0.1-0.1-0.2-0.1-0.4-0.1c-0.2,0-0.4,0.1-0.5,0.2c-0.1,0.2-0.2,0.4-0.2,0.7c0,0.3,0.1,0.6,0.2,0.7
			c0.1,0.2,0.3,0.2,0.5,0.2c0.2,0,0.3-0.1,0.4-0.2C162.3,71.4,162.3,71.2,162.4,71"/>
		<path class="st0" d="M163.4,70.5h1.4c0-0.2-0.1-0.4-0.2-0.5c-0.1-0.2-0.3-0.2-0.5-0.2c-0.2,0-0.4,0.1-0.5,0.2
			C163.4,70.1,163.4,70.2,163.4,70.5 M164.7,71.1l0.4,0.1c-0.1,0.3-0.2,0.5-0.4,0.6c-0.2,0.1-0.4,0.2-0.7,0.2
			c-0.4,0-0.7-0.1-0.9-0.3c-0.2-0.2-0.3-0.5-0.3-0.9c0-0.4,0.1-0.7,0.3-1c0.2-0.2,0.5-0.3,0.8-0.3c0.3,0,0.6,0.1,0.8,0.3
			c0.2,0.2,0.3,0.5,0.3,1c0,0,0,0.1,0,0.1h-1.9c0,0.3,0.1,0.5,0.2,0.6c0.1,0.1,0.3,0.2,0.5,0.2c0.2,0,0.3,0,0.4-0.1
			C164.6,71.4,164.7,71.3,164.7,71.1"/>
	</g>
	<rect x="165.6" y="68.5" class="st0" width="0.4" height="3.4"/>
	<rect x="166.6" y="68.5" class="st0" width="0.4" height="3.4"/>
	<g>
		<path class="st0" d="M167.9,70.5h1.4c0-0.2-0.1-0.4-0.2-0.5c-0.1-0.2-0.3-0.2-0.5-0.2c-0.2,0-0.4,0.1-0.5,0.2
			C168,70.1,167.9,70.2,167.9,70.5 M169.2,71.1l0.4,0.1c-0.1,0.3-0.2,0.5-0.4,0.6c-0.2,0.1-0.4,0.2-0.7,0.2c-0.4,0-0.7-0.1-0.9-0.3
			c-0.2-0.2-0.3-0.5-0.3-0.9c0-0.4,0.1-0.7,0.3-1c0.2-0.2,0.5-0.3,0.8-0.3c0.3,0,0.6,0.1,0.8,0.3c0.2,0.2,0.3,0.5,0.3,1
			c0,0,0,0.1,0,0.1h-1.9c0,0.3,0.1,0.5,0.2,0.6c0.1,0.1,0.3,0.2,0.5,0.2c0.2,0,0.3,0,0.4-0.1C169.1,71.4,169.2,71.3,169.2,71.1"/>
		<path class="st0" d="M170.1,71.9v-2.5h0.4v0.4c0.2-0.3,0.4-0.4,0.8-0.4c0.2,0,0.3,0,0.4,0.1c0.1,0.1,0.2,0.1,0.3,0.2
			c0.1,0.1,0.1,0.2,0.1,0.3c0,0.1,0,0.2,0,0.4v1.5h-0.4v-1.5c0-0.2,0-0.3-0.1-0.4c0-0.1-0.1-0.2-0.2-0.2c-0.1-0.1-0.2-0.1-0.3-0.1
			c-0.2,0-0.3,0.1-0.5,0.2c-0.1,0.1-0.2,0.3-0.2,0.6v1.4H170.1z"/>
		<path class="st0" d="M174.3,71l0.4,0.1c0,0.3-0.2,0.5-0.3,0.7c-0.2,0.2-0.4,0.2-0.7,0.2c-0.3,0-0.6-0.1-0.8-0.3
			c-0.2-0.2-0.3-0.5-0.3-1c0-0.3,0-0.5,0.1-0.7c0.1-0.2,0.2-0.4,0.4-0.5c0.2-0.1,0.4-0.2,0.6-0.2c0.3,0,0.5,0.1,0.7,0.2
			c0.2,0.1,0.3,0.3,0.3,0.6l-0.4,0.1c0-0.2-0.1-0.3-0.2-0.4s-0.2-0.1-0.4-0.1c-0.2,0-0.4,0.1-0.5,0.2c-0.1,0.2-0.2,0.4-0.2,0.7
			c0,0.3,0.1,0.6,0.2,0.7c0.1,0.2,0.3,0.2,0.5,0.2c0.2,0,0.3-0.1,0.4-0.2C174.2,71.4,174.3,71.2,174.3,71"/>
		<path class="st0" d="M175.3,70.5h1.4c0-0.2-0.1-0.4-0.2-0.5c-0.1-0.2-0.3-0.2-0.5-0.2c-0.2,0-0.4,0.1-0.5,0.2
			C175.4,70.1,175.3,70.2,175.3,70.5 M176.7,71.1l0.4,0.1c-0.1,0.3-0.2,0.5-0.4,0.6c-0.2,0.1-0.4,0.2-0.7,0.2
			c-0.4,0-0.7-0.1-0.9-0.3c-0.2-0.2-0.3-0.5-0.3-0.9c0-0.4,0.1-0.7,0.3-1c0.2-0.2,0.5-0.3,0.8-0.3c0.3,0,0.6,0.1,0.8,0.3
			c0.2,0.2,0.3,0.5,0.3,1c0,0,0,0.1,0,0.1h-1.9c0,0.3,0.1,0.5,0.2,0.6c0.1,0.1,0.3,0.2,0.5,0.2c0.2,0,0.3,0,0.4-0.1
			C176.5,71.4,176.6,71.3,176.7,71.1"/>
		<path class="st0" d="M26.1,30.7c0,0.1,0,0.3,0,0.5c0,0.1,0,0.2,0,0.4L7,29c0-0.1,0-0.1,0-0.2c0-0.2,0-0.4-0.1-0.6L26.1,30.7z"/>
		<path class="st0" d="M6.8,30.1l5.8,4.2c-0.3,0.1-0.6,0.2-0.8,0.4l-5.4-3.9C6.5,30.6,6.7,30.3,6.8,30.1"/>
		<path class="st0" d="M22.4,47.7l-10.4,7.8c-0.1-0.2-0.3-0.5-0.5-0.7L22,47.1C22.1,47.3,22.3,47.5,22.4,47.7"/>
		<path class="st0" d="M4.7,32.1l5.1,22c0,0-0.1,0-0.1,0c-0.3,0-0.6,0.1-0.8,0.1l-5.1-22C4.1,32.2,4.5,32.2,4.7,32.1"/>
		<path class="st0" d="M39.3,26.8l-11-11c0.2-0.2,0.3-0.4,0.5-0.7l11.1,11.1C39.7,26.4,39.5,26.5,39.3,26.8"/>
		<path class="st0" d="M12.7,39.6c0.2,0.1,0.4,0.1,0.6,0.1c0.1,0,0.1,0,0.2,0l-2.7,14.6c-0.2-0.1-0.5-0.2-0.8-0.2L12.7,39.6z"/>
		<path class="st0" d="M46.1,15.3L35.8,5.7C36,5.5,36.1,5.3,36.3,5l10.6,9.8C46.5,14.9,46.3,15.1,46.1,15.3"/>
		<path class="st0" d="M43.7,26l3-7.2c0.2,0.1,0.5,0.1,0.8,0.1c0,0,0,0,0.1,0l-3.1,7.5C44.1,26.3,43.9,26.1,43.7,26"/>
		<path class="st0" d="M30.9,6.2l-3.6,4.8c-0.3-0.1-0.6-0.2-1-0.3l3.9-5.2C30.5,5.8,30.7,6,30.9,6.2"/>
		<path class="st0" d="M29.6,27.6c-0.3,0-0.6,0-0.8,0.1l-2.6-10.9c0.3,0,0.6,0,0.8-0.1L29.6,27.6z"/>
		<path class="st0" d="M23.1,13.8c0,0.3,0,0.5,0.1,0.7L6.1,26.4c-0.2-0.2-0.5-0.4-0.7-0.6l17.8-12.4C23.1,13.6,23.1,13.7,23.1,13.8"
			/>
		<path class="st0" d="M12.3,56.9l21,11.8c-0.2,0.2-0.3,0.5-0.4,0.8L12.1,57.8C12.2,57.5,12.3,57.2,12.3,56.9"/>
	</g>
	<rect x="28.4" y="44.8" transform="matrix(0.9505 -0.3108 0.3108 0.9505 -16.2292 11.7992)" class="st0" width="1" height="24.1"/>
	<g>
		<path class="st0" d="M36.6,3.5C36.6,1.6,35,0,33.1,0c-1.9,0-3.5,1.6-3.5,3.5c0,1.9,1.6,3.5,3.5,3.5C35,7,36.6,5.4,36.6,3.5"/>
		<path class="st0" d="M49.5,16.8c0-1.2-0.9-2.1-2.1-2.1c-1.2,0-2.1,0.9-2.1,2.1c0,1.2,0.9,2.1,2.1,2.1C48.6,18.9,49.5,18,49.5,16.8
			"/>
		<path class="st0" d="M45.5,29c0-1.9-1.6-3.5-3.5-3.5c-1.9,0-3.5,1.6-3.5,3.5c0,1.9,1.6,3.5,3.5,3.5C43.9,32.5,45.5,31,45.5,29"/>
		<path class="st0" d="M29.1,13.8c0-1.7-1.3-3-3-3c-1.7,0-3,1.3-3,3c0,1.7,1.3,3,3,3C27.8,16.8,29.1,15.4,29.1,13.8"/>
		<path class="st0" d="M33.1,31.1c0-1.9-1.6-3.5-3.5-3.5s-3.5,1.6-3.5,3.5c0,1.9,1.6,3.5,3.5,3.5S33.1,33.1,33.1,31.1"/>
		<path class="st0" d="M7,28.8c0-1.9-1.6-3.5-3.5-3.5S0,26.8,0,28.8c0,1.9,1.6,3.5,3.5,3.5S7,30.7,7,28.8"/>
		<path class="st0" d="M16.1,36.9c0-1.5-1.2-2.8-2.8-2.8c-1.5,0-2.8,1.2-2.8,2.8c0,1.5,1.2,2.8,2.8,2.8
			C14.9,39.7,16.1,38.5,16.1,36.9"/>
		<path class="st0" d="M12.3,56.6c0-1.4-1.1-2.6-2.6-2.6c-1.4,0-2.6,1.1-2.6,2.6c0,1.4,1.1,2.6,2.6,2.6
			C11.2,59.2,12.3,58.1,12.3,56.6"/>
		<path class="st0" d="M28.8,45.4c0-2-1.6-3.6-3.6-3.6s-3.6,1.6-3.6,3.6c0,2,1.6,3.6,3.6,3.6S28.8,47.4,28.8,45.4"/>
		<path class="st0" d="M34.8,69.1c0-1.2-1-2.1-2.1-2.1s-2.1,1-2.1,2.1c0,1.2,1,2.1,2.1,2.1S34.8,70.3,34.8,69.1"/>
	</g>
</g>
</svg>
